HIERARCHY
ROOT pelvis
{
	OFFSET 0.000000 0.000000 0.000000
	CHANNELS 6 Xposition Yposition Zposition Zrotation Xrotation Yrotation
	JOINT lfemur
	{
		OFFSET 11.446000 0.000000 0.000000
		CHANNELS 3 Zrotation Xrotation Yrotation
		JOINT ltibia
		{
			OFFSET 0.000000 -42.030400 0.000000
			CHANNELS 3 Zrotation Xrotation Yrotation
			JOINT lfoot
			{
				OFFSET 0.000000 -39.930200 0.000000
				CHANNELS 3 Zrotation Xrotation Yrotation
				JOINT ltoes
				{
					OFFSET 0.000000 0.000000 11.775800
					CHANNELS 3 Zrotation Xrotation Yrotation
					End Site
					{
					    OFFSET 0.000000 0.000000 5.000000
					}
				}
			}
		}
	}
	JOINT rfemur
	{
		OFFSET -11.446000 0.000000 0.000000
		CHANNELS 3 Zrotation Xrotation Yrotation
		JOINT rtibia
		{
			OFFSET 0.000000 -42.030400 0.000000
			CHANNELS 3 Zrotation Xrotation Yrotation
			JOINT rfoot
			{
				OFFSET 0.000000 -39.930200 0.000000
				CHANNELS 3 Zrotation Xrotation Yrotation
				JOINT rtoes
				{
					OFFSET 0.000000 0.000000 11.775800
					CHANNELS 3 Zrotation Xrotation Yrotation
					End Site
					{
					    OFFSET 0.000000 0.000000 5.000000
					}
				}
			}
		}
	}
	JOINT thorax
	{
		OFFSET 0.000000 11.255600 -5.000000
		CHANNELS 3 Zrotation Xrotation Yrotation
		JOINT head
		{
			OFFSET 0.000000 43.799300 0.000000
			CHANNELS 3 Zrotation Xrotation Yrotation
			End Site
			{
			    OFFSET 0.000000 5.000000 0.000000
			}
		}
		JOINT lclavicle
		{
			OFFSET 0.000000 39.863000 0.000000
			CHANNELS 3 Zrotation Xrotation Yrotation
			JOINT lhumerus
			{
				OFFSET 17.380600 4.958300 0.000000
				CHANNELS 3 Zrotation Xrotation Yrotation
				JOINT lradius
				{
					OFFSET 0.000000 -27.561300 0.000000
					CHANNELS 3 Zrotation Xrotation Yrotation
					JOINT lhand
					{
						OFFSET 0.000000 -26.933000 0.000000
						CHANNELS 3 Zrotation Xrotation Yrotation
						End Site
						{
						    OFFSET 0.000000 -5.000000 0.000000
						}
					}
				}
			}
		}
		JOINT rclavicle
		{
			OFFSET 0.000000 39.863000 0.000000
			CHANNELS 3 Zrotation Xrotation Yrotation
			JOINT rhumerus
			{
				OFFSET -17.380600 4.958300 0.000000
				CHANNELS 3 Zrotation Xrotation Yrotation
				JOINT rradius
				{
					OFFSET 0.000000 -27.561300 0.000000
					CHANNELS 3 Zrotation Xrotation Yrotation
					JOINT rhand
					{
						OFFSET 0.000000 -26.933000 0.000000
						CHANNELS 3 Zrotation Xrotation Yrotation
						End Site
						{
						    OFFSET 0.000000 -5.000000 0.000000
						}
					}
				}
			}
		}
	}
}
MOTION
Frames:	14
Frame Time:	0.0333333
153.741700 86.847000 -11.058200 3.890938 -3.053012 -99.487113 -2.541838 -7.824086 4.576103 0.000000 33.930713 -0.000000 0.000000 -3.224064 12.939900 0.000000 -1.371671 -0.000000 4.000311 -6.388211 -6.988592 -0.000000 16.041230 0.000000 0.000000 1.150048 -7.410093 0.000000 -29.524182 -0.000000 -1.768208 12.243347 -4.200410 13.031652 22.277046 15.810164 -8.876358 0.000000 -4.780007 32.195818 -38.944887 110.767564 -0.000005 66.379196 -51.221052 -10.295106 -15.887775 -0.000000 27.138718 -0.000000 2.782227 -40.023503 -0.412675 -10.970511 -0.000001 -23.586225 31.194917 6.358276 -5.583394 0.000000 
153.919300 86.791900 -11.200000 3.714530 -2.718200 -99.687186 -2.322616 -5.857135 6.032818 -0.000000 35.072055 -0.000000 0.000000 -3.757477 13.495369 -0.000000 -1.358365 -0.000000 4.289611 -5.411008 -7.382836 0.000000 14.455586 -0.000000 -0.000000 1.099029 -6.388542 0.000000 -29.527925 -0.000000 -1.400807 11.912240 -4.462424 12.507947 21.781644 16.147761 -8.491591 -0.000000 -4.954081 32.775086 -39.870352 112.843206 -0.000001 68.428587 -50.856441 -11.097404 -15.648273 -0.000000 27.585551 -0.000000 2.048478 -39.984934 -0.419143 -10.352214 0.000001 -24.349839 30.171615 5.488184 -5.290259 0.000000 
154.169400 86.739500 -11.281200 3.816680 -2.394847 -99.765234 -2.040888 -4.693655 6.932067 -0.000000 36.023238 0.000000 -0.000000 -4.186625 13.840624 -0.000000 -1.349299 -0.000000 4.825458 -4.355351 -6.584483 -0.000000 12.187404 -0.000000 -0.000000 1.278931 -6.278520 -0.000000 -29.525196 -0.000000 -0.887855 11.397207 -4.619312 11.324886 21.979816 17.125876 -8.390538 0.000000 -4.598297 33.037912 -40.956068 113.592237 0.000004 68.854718 -50.943816 -10.950170 -15.727517 -0.000000 27.570700 0.000000 1.580042 -39.247137 -0.626023 -10.624859 0.000001 -24.410894 28.299005 6.523836 -5.645473 -0.000000 
154.429200 86.774000 -11.195000 3.856466 -2.605853 -99.847633 -2.479355 -3.958595 6.809214 -0.000000 36.360830 -0.000000 -0.000000 -3.816509 14.031852 0.000000 -1.342744 0.000000 4.639509 -4.185934 -6.262314 -0.000000 11.690714 -0.000000 -0.000000 0.400110 -5.990734 -0.000000 -29.523946 0.000000 -0.751812 10.817921 -4.382369 10.759460 21.408365 16.686907 -8.700289 0.000000 -4.346366 33.061262 -41.255580 113.491404 0.000008 67.629977 -50.221949 -11.790601 -15.430780 0.000000 27.854149 -0.000000 1.442980 -38.948019 -0.503188 -10.752578 0.000000 -24.367744 29.230943 6.819209 -5.741063 -0.000000 
154.683800 86.866800 -11.154000 3.956373 -2.771005 -100.284167 -2.662449 -3.833386 6.706602 0.000000 36.623045 -0.000000 -0.000000 -3.617183 13.909763 0.000000 -1.329756 -0.000000 4.508979 -4.180161 -5.855264 -0.000000 11.260449 -0.000000 -0.000000 -0.168972 -5.757465 -0.000000 -29.528690 -0.000000 -0.511399 10.359051 -3.865662 9.956367 20.936615 16.447914 -9.288650 -0.000000 -4.216647 33.651497 -40.545098 113.672877 0.000005 65.765057 -49.909043 -11.833632 -15.227470 0.000000 27.646897 -0.000000 1.808471 -38.078755 -0.314316 -10.948580 0.000000 -24.044507 29.933082 7.435040 -5.950983 0.000000 
154.877400 86.970300 -11.036800 4.227689 -2.997679 -100.449443 -2.849943 -4.288387 5.887519 0.000000 36.432674 -0.000000 0.000000 -3.336925 13.841114 -0.000000 -1.328878 -0.000000 4.292325 -4.187477 -6.069819 -0.000000 10.466490 -0.000000 0.000000 -0.127043 -4.739053 -0.000000 -29.530206 -0.000000 -0.140052 9.811656 -3.345351 9.065470 20.826182 16.341581 -10.052850 0.000000 -4.116111 34.271674 -39.333370 113.150198 0.000003 62.742314 -47.990445 -12.273424 -15.465690 -0.000000 27.232618 -0.000000 2.232686 -37.102526 0.030531 -10.598278 -0.000000 -23.860020 29.936182 8.223350 -6.216577 0.000000 
155.002500 87.023000 -10.897700 4.522630 -3.200476 -100.445521 -2.809445 -5.150273 5.049079 -0.000000 36.119387 -0.000000 0.000000 -3.472943 13.587468 -0.000000 -1.352994 -0.000000 4.052043 -4.377208 -6.237522 -0.000000 10.092545 0.000000 0.000000 -0.483408 -4.031119 0.000000 -29.533782 -0.000000 0.369727 9.309900 -2.765890 8.417349 20.679290 16.068759 -10.936804 -0.000000 -4.118884 34.867550 -37.513325 112.226861 -0.000003 58.728593 -45.029711 -12.839562 -14.868642 0.000000 26.801053 0.000000 2.474596 -36.192252 0.400502 -9.419799 0.000000 -24.015330 30.738317 6.876551 -5.761826 -0.000000 
154.933300 87.064600 -10.699300 4.520511 -3.491072 -100.574301 -2.825628 -5.873287 4.548948 -0.000000 35.560014 -0.000000 0.000000 -3.415150 13.516648 -0.000000 -1.359245 -0.000000 3.553291 -4.382246 -6.567749 -0.000000 10.101589 0.000000 -0.000000 -0.827539 -3.251942 -0.000000 -29.539051 -0.000000 0.887405 9.135156 -2.186709 7.734021 20.548851 15.758943 -11.942932 0.000000 -4.223994 35.892824 -34.904765 111.377056 -0.000001 54.372394 -42.140541 -13.044021 -14.437854 -0.000000 26.244900 -0.000000 2.704174 -35.435337 0.659198 -8.235559 0.000001 -24.605300 31.181870 6.269837 -5.555602 0.000000 
154.841400 87.070100 -10.526300 4.634872 -3.648233 -101.060641 -2.445043 -6.983041 4.901134 0.000000 35.274714 -0.000000 0.000000 -3.651416 13.545576 -0.000000 -1.354824 -0.000000 3.239753 -4.704219 -7.259798 -0.000000 10.473979 -0.000000 0.000000 -0.822444 -2.367397 -0.000000 -29.539239 -0.000000 1.529603 8.965335 -1.575541 6.918233 20.757337 16.136177 -13.160205 -0.000000 -4.500464 37.813404 -31.162680 111.411715 -0.000005 50.529050 -38.874227 -14.153008 -14.895042 0.000000 25.951765 -0.000000 2.976700 -35.033112 0.433672 -7.566373 0.000001 -25.103797 30.450614 8.141251 -6.191827 0.000000 
154.596200 87.037200 -10.391300 4.581847 -3.768445 -101.609264 -1.949102 -8.191670 5.758577 0.000000 35.408770 0.000000 -0.000000 -3.590501 13.638642 0.000000 -1.348725 -0.000000 3.102897 -4.738622 -6.411565 -0.000000 10.637329 0.000000 -0.000000 0.362089 -2.472888 -0.000000 -29.527754 -0.000000 2.055627 9.106263 -1.298823 6.167178 21.056808 17.258832 -14.221583 0.000000 -4.328410 40.204152 -26.641033 112.857421 0.000002 47.728266 -33.958690 -14.947036 -15.765657 0.000000 26.111456 0.000000 2.883208 -35.285704 -0.478475 -5.701746 -0.000000 -25.497287 29.797952 7.917075 -6.115551 0.000000 
154.293300 87.030100 -10.237100 4.549243 -4.025568 -102.181532 -1.774897 -9.635716 5.984356 0.000000 35.562159 -0.000000 -0.000000 -3.385327 13.759871 -0.000000 -1.350200 -0.000000 2.797830 -5.025587 -5.926772 -0.000000 11.174417 -0.000000 -0.000000 0.794357 -2.840645 0.000000 -29.524199 -0.000000 2.309513 9.353419 -1.121548 5.709943 21.421303 18.199136 -14.871139 0.000000 -4.120982 42.354991 -21.769297 114.983033 -0.000001 45.367763 -28.666624 -16.337158 -15.161083 -0.000000 26.305992 0.000000 2.842836 -35.349462 -1.521541 -5.358205 -0.000001 -26.067122 29.915543 7.745029 -6.055111 0.000000 
153.920300 87.099500 -10.052700 4.707760 -4.272118 -102.467273 -1.764188 -11.577752 5.658819 -0.000000 35.927509 -0.000000 -0.000000 -2.793041 13.068477 -0.000000 -1.357617 -0.000000 2.462704 -4.924815 -5.762160 0.000000 10.852835 -0.000000 0.000000 1.173767 -2.843369 -0.000000 -29.522894 -0.000000 2.537249 9.655408 -1.209150 5.513718 21.336734 18.831563 -15.259964 0.000000 -3.629667 43.980640 -17.665286 116.208042 -0.000001 43.528413 -25.074055 -16.970073 -15.573601 -0.000000 26.366050 0.000000 2.656510 -35.247872 -2.557653 -5.224892 -0.000001 -27.065164 29.859011 8.307596 -6.246508 0.000000 
153.457700 87.240700 -9.789300 4.970779 -4.761744 -102.781542 -2.176798 -13.624946 5.210674 -0.000000 35.656583 -0.000000 -0.000000 -2.392653 12.255062 -0.000000 -1.377542 0.000000 1.786294 -4.996505 -5.748624 -0.000000 10.680554 -0.000000 0.000000 1.644677 -2.671008 -0.000000 -29.524042 -0.000000 2.533474 9.729286 -1.009798 5.182831 21.500095 19.441780 -15.817607 -0.000000 -3.139130 45.080489 -14.775672 115.377310 -0.000001 41.185168 -23.463138 -17.080720 -16.216484 0.000000 26.265654 0.000000 2.501341 -35.260994 -3.006481 -5.151425 -0.000001 -28.486741 28.640151 8.797842 -6.413548 0.000000 
153.040100 87.361800 -9.538200 5.335917 -5.284475 -103.183435 -2.603359 -15.912582 4.998358 -0.000000 35.001083 -0.000000 0.000000 -1.781519 11.305671 -0.000000 -1.401105 -0.000000 1.242215 -5.376489 -5.243883 -0.000000 10.715720 0.000000 0.000000 1.852366 -3.274821 0.000000 -29.524865 -0.000000 2.303250 9.722639 -0.486929 5.215207 21.508749 19.540904 -16.065953 -0.000000 -3.070884 45.779581 -12.020722 114.797163 0.000001 38.748083 -19.576522 -18.482880 -16.352644 0.000000 25.975824 -0.000000 2.648577 -35.371874 -2.882250 -4.525767 -0.000001 -30.064887 27.190759 8.782553 -6.407928 0.000000 
